<svg xmlns="http://www.w3.org/2000/svg" version="1.1" xmlns:xlink="http://www.w3.org/1999/xlink" xmlns:svgjs="http://svgjs.dev/svgjs" width="100%" height="100%" viewBox="0 0 1000 600"><rect width="1000" height="600" x="0" y="0" fill="#182742"/><g><rect width="333.3333333333333" height="333.3333333333333" rx="13.333333333333334" ry="13.333333333333334" y="241.65692534078656" fill="#3a5f6f" transform="matrix(0.569645568085162,0,0,0.5696455680851621,0,67.4002802003677)" x="219.43475341796875"/><path d="M427.82156080440643 483.32358493228435L345.13762975503596 483.32358493228435L330.2854641777686 333.3235886044659L408.2593334584223 333.3235886044659L397.1202092754718 444.95549052434365L441.9173660976463 442.48012959479905L427.82156080440643 483.32358493228435Z " fill="#dad5b7" transform="matrix(0.569645568085162,0,0,0.5696455680851621,0,67.4002802003677)"/><path d="M696.0546607147378 417.468499183336L706.1637366768417 417.468499183336Q715.8345579007041 417.468499183336 721.5026525152941 411.59588569089993Q727.1999641124336 405.69405521591443 727.1999641124336 397.19191329402935Q727.1999641124336 388.6605543895949 721.8240393233378 384.33644097227875Q716.4481145342422 380.0415445375121 708.0336235600055 380.0415445375121L708.0336235600055 380.0415445375121L699.6191325857686 380.0415445375121L696.0546607147378 417.468499183336ZM719.399029771735 444.40655709391336L719.399029771735 444.40655709391336L693.3082643550911 444.40655709391336L689.7437924840602 481.21995510619917L648.7231489846561 481.21995510619917L636.101412523301 353.7462602430222L729.9171434895309 353.7462602430222Q752.0051822969024 353.7462602430222 765.7955980602349 364.994798524554Q779.5567968410178 376.2433368060858 779.5567968410178 397.2795642416777L779.5567968410178 397.2795642416777Q779.5567968410178 410.1058195808788 774.4146079123176 419.5721219268952Q769.2724189836174 429.0384242729115 760.4196732711391 434.2974811318095L760.4196732711391 434.2974811318095Q743.3861724448195 444.40655709391336 719.399029771735 444.40655709391336ZM801.1189299624995 470.81870931860095Q785.8676650716955 458.2846238048941 785.8676650716955 430.93752813862466Q785.8676650716955 403.59043247235525 801.1189299624995 391.08556394119785Q816.3701948533036 378.551478427491 841.8474036364094 378.551478427491Q867.2953954369657 378.551478427491 882.5466603277697 391.08556394119785Q897.7979252185738 403.59043247235525 897.7979252185738 430.93752813862466Q897.7979252185738 458.2846238048941 882.5466603277697 470.81870931860095Q867.2953954369657 483.32357784975835 841.8474036364094 483.32357784975835Q816.3701948533036 483.32357784975835 801.1189299624995 470.81870931860095ZM832.9946579239311 407.0672533957378Q830.4819974246798 414.3130650679972 830.4819974246798 430.93752813862466Q830.4819974246798 447.56199120925214 832.9946579239311 454.8078028815116Q835.5365354057318 462.08283153632044 841.8474036364094 462.08283153632044Q848.1582718670868 462.08283153632044 850.6709323663381 454.8078028815116Q853.1835928655894 447.56199120925214 853.1835928655894 430.93752813862466Q853.1835928655894 414.3130650679972 850.6709323663381 407.0672533957378Q848.1582718670868 399.82144172347836 841.8474036364094 399.82144172347836Q835.5365354057318 399.82144172347836 832.9946579239311 407.0672533957378ZM950.7975315632457 381.50239366498374L956.0565884221435 395.1759414981185Q967.2174757560269 378.551478427491 983.608202966259 378.551478427491L983.608202966259 378.551478427491Q991.4091373069577 378.551478427491 997.9245244154813 382.3496861589173L997.9245244154813 382.3496861589173L992.8699864344294 416.8549425497979Q984.4554954601927 410.9531120748124 973.9373817423966 410.9531120748124L973.9373817423966 410.9531120748124Q963.8575227628422 410.9531120748124 960.263833909262 419.36760304904914L960.263833909262 419.36760304904914Q958.1602111657028 424.6266599079471 957.5466545321647 429.476679011153L957.5466545321647 429.476679011153L953.5439279228923 481.21995510619917L915.6787185388268 481.21995510619917L909.3678503081494 381.50239366498374L950.7975315632457 381.50239366498374ZM1061.4422444779489 408.8494893312532L1059.9813953504772 443.7637834778258Q1059.7768764726313 455.9764821834889 1068.60040520256 455.9764821834889L1068.60040520256 455.9764821834889Q1071.1422826843607 455.9764821834889 1074.7067545553916 453.6683405620837L1074.7067545553916 453.6683405620837L1079.118518920356 474.061794381588Q1077.8621886707306 475.1136057533676 1075.6416979969736 476.691322811037Q1073.4504243057659 478.2690398687064 1066.1753956509572 480.8109173505071Q1058.9295839786978 483.32357784975835 1051.1578666205485 483.32357784975835L1051.1578666205485 483.32357784975835Q1036.8415451713263 483.32357784975835 1027.784280581002 473.53588869569825Q1018.7562329732272 463.7481995416381 1018.1134593571396 448.6138025810318L1018.1134593571396 448.6138025810318L1016.2143554914264 408.8494893312532L1000.0281471590405 408.8494893312532L1002.5408076582917 381.50239366498374L1015.1625441196468 381.50239366498374L1014.3444686082627 360.90442096763337L1064.1886408375956 350.7953450055295L1062.727791710124 381.50239366498374L1074.9112734332377 381.50239366498374L1077.4531509150383 408.8494893312532L1061.4422444779489 408.8494893312532ZM1092.1785101199528 381.50239366498374L1102.258369099507 381.50239366498374Q1102.258369099507 362.16075121725896 1111.4032846374796 351.9640243075068Q1120.5774171580017 341.7380804152052 1142.4317201049778 341.7380804152052L1142.4317201049778 341.7380804152052Q1152.1317583113896 341.7380804152052 1160.9552870413183 344.48447677485194L1160.9552870413183 344.48447677485194L1163.2634286627235 364.87793059435626Q1160.1079945473848 364.05985508297215 1156.952560432046 364.05985508297215L1156.952560432046 364.05985508297215Q1146.6389655920962 364.05985508297215 1146.6389655920962 378.78521428788645L1146.6389655920962 378.78521428788645L1146.6389655920962 381.50239366498374L1159.4944379138467 381.50239366498374L1162.007098413098 408.8494893312532L1147.924512824271 408.8494893312532L1144.7690787089323 481.21995510619917L1106.0565768309334 481.21995510619917L1102.9011427155947 408.8494893312532L1089.636632638152 408.8494893312532L1092.1785101199528 381.50239366498374ZM1187.980995899544 470.81870931860095Q1172.72973100874 458.2846238048941 1172.72973100874 430.93752813862466Q1172.72973100874 403.59043247235525 1187.980995899544 391.08556394119785Q1203.2322607903482 378.551478427491 1228.6802525909043 378.551478427491Q1254.1574613740102 378.551478427491 1269.4087262648143 391.08556394119785Q1284.6599911556184 403.59043247235525 1284.6599911556184 430.93752813862466Q1284.6599911556184 458.2846238048941 1269.4087262648143 470.81870931860095Q1254.1574613740102 483.32357784975835 1228.6802525909043 483.32357784975835Q1203.2322607903482 483.32357784975835 1187.980995899544 470.81870931860095ZM1219.8567238609758 407.0672533957378Q1217.3440633617242 414.3130650679972 1217.3440633617242 430.93752813862466Q1217.3440633617242 447.56199120925214 1219.8567238609758 454.8078028815116Q1222.3693843602268 462.08283153632044 1228.6802525909043 462.08283153632044Q1234.991120821582 462.08283153632044 1237.5329983033826 454.8078028815116Q1240.0456588026339 447.56199120925214 1240.0456588026339 430.93752813862466Q1240.0456588026339 414.3130650679972 1237.5329983033826 407.0672533957378Q1234.991120821582 399.82144172347836 1228.6802525909043 399.82144172347836Q1222.3693843602268 399.82144172347836 1219.8567238609758 407.0672533957378ZM1217.9576199952623 372.0360913189674L1233.1212339384183 347.23087313449867Q1237.9420360590748 339.4299387938 1244.7788099756422 339.4299387938Q1251.6155838922093 339.4299387938 1255.6183105014818 343.3157974728746Q1259.6210371107543 347.23087313449867 1259.6210371107543 353.8339111906705Q1259.6210371107543 360.4661662293919 1252.0538386304509 364.87793059435626L1252.0538386304509 364.87793059435626L1239.841139924788 372.0360913189674L1217.9576199952623 372.0360913189674ZM1296.2299162451939 344.68899565269794L1346.2786073523728 344.68899565269794L1340.610512737783 481.21995510619917L1301.8980108597839 481.21995510619917L1296.2299162451939 344.68899565269794ZM1408.9782519034563 384.4533089024765L1408.9782519034563 384.4533089024765L1412.5427237744873 383.1969786528509L1405.3845630498763 481.21995510619917L1365.649466782647 481.21995510619917L1358.900343813728 383.1969786528509Q1370.9085236415451 388.01778077350735 1384.4652035444822 388.01778077350735Q1398.021883447419 388.01778077350735 1408.9782519034563 384.4533089024765ZM1385.6338828464593 378.78521428788645Q1375.1157691286635 378.78521428788645 1367.9576084040523 372.4743460572089Q1360.7994476794413 366.16347782653133 1360.7994476794413 355.9375339342297Q1360.7994476794413 345.7408070244776 1367.8407404738546 339.54680672399775Q1374.8820332682678 333.3235894409685 1385.5170149162616 333.3235894409685Q1396.1519965642553 333.3235894409685 1403.280940306317 339.63445767164603Q1410.439101030928 345.9453259023236 1410.439101030928 356.05440186442746Q1410.439101030928 366.16347782653133 1403.280940306317 372.4743460572089Q1396.1519965642553 378.78521428788645 1385.6338828464593 378.78521428788645ZM1439.3639137548669 470.81870931860095Q1424.1126488640627 458.2846238048941 1424.1126488640627 430.93752813862466Q1424.1126488640627 403.59043247235525 1439.3639137548669 391.08556394119785Q1454.615178645671 378.551478427491 1480.0631704462273 378.551478427491Q1505.540379229333 378.551478427491 1520.791644120137 391.08556394119785Q1536.0429090109412 403.59043247235525 1536.0429090109412 430.93752813862466Q1536.0429090109412 458.2846238048941 1520.791644120137 470.81870931860095Q1505.540379229333 483.32357784975835 1480.0631704462273 483.32357784975835Q1454.615178645671 483.32357784975835 1439.3639137548669 470.81870931860095ZM1471.2396417162984 407.0672533957378Q1468.7269812170473 414.3130650679972 1468.7269812170473 430.93752813862466Q1468.7269812170473 447.56199120925214 1471.2396417162984 454.8078028815116Q1473.75230221555 462.08283153632044 1480.0631704462273 462.08283153632044Q1486.374038676905 462.08283153632044 1488.9159161587056 454.8078028815116Q1491.4285766579567 447.56199120925214 1491.4285766579567 430.93752813862466Q1491.4285766579567 414.3130650679972 1488.9159161587056 407.0672533957378Q1486.374038676905 399.82144172347836 1480.0631704462273 399.82144172347836Q1473.75230221555 399.82144172347836 1471.2396417162984 407.0672533957378Z " fill="#dad5b7" transform="matrix(0.569645568085162,0,0,0.5696455680851621,0,67.4002802003677)"/></g></svg>